<svg width="672" height="275" viewBox="0 0 672 275" fill="none" xmlns="http://www.w3.org/2000/svg">
<path d="M0.847885 74.522H0.845703C0.845703 74.5274 0.847885 74.5372 0.847885 74.5372V74.522Z" fill="#7CBDE0"/>
<path d="M14.5385 50.7551C14.5321 50.7241 14.5278 50.7026 14.5278 50.7026C14.5278 50.7026 14.5332 50.7283 14.5385 50.7551Z" fill="#7CBDE0"/>
<path d="M14.5663 50.8893C14.5578 50.8486 14.5513 50.8144 14.5449 50.7876C14.5503 50.8122 14.5588 50.854 14.5663 50.8893Z" fill="#7CBDE0"/>
<path d="M7.69189 86.3883C7.69189 58.988 23.5011 37.2539 53.9331 37.2539C84.3651 37.2539 100.041 58.988 100.041 86.3883C100.041 113.789 85.4183 135.523 53.5385 135.523C21.6586 135.523 7.69712 113.919 7.69712 86.3883H7.69189ZM79.747 86.3883C79.747 68.6058 73.0276 52.53 53.9279 52.53C34.8282 52.53 27.9755 68.6006 27.9755 86.3883C27.9755 104.176 34.5616 119.585 53.6613 119.585C72.761 119.585 79.747 104.176 79.747 86.3883Z" fill="black"/>
<path d="M108.459 61.2251H127.167V72.4215C131.38 64.6489 138.63 60.1719 149.829 60.1719C168.798 60.1719 180.522 75.1892 180.522 97.0567C180.522 121.031 166.425 135.52 148.775 135.52C138.371 135.52 131.521 131.568 127.436 124.582V171.349H108.467V61.2173L108.462 61.2225L108.459 61.2251ZM161.153 98.1099C161.153 82.8286 154.042 75.4506 143.763 75.4506C133.484 75.4506 125.847 82.6953 125.847 98.1099C125.847 113.525 133.225 119.977 143.763 119.977C154.3 119.977 161.153 113.125 161.153 98.1099Z" fill="black"/>
<path d="M186.573 98.1099C186.573 75.3225 200.804 60.1719 222.671 60.1719C243.093 60.1719 254.943 73.0827 254.943 94.1556V102.72H205.15C206.865 114.578 215.027 119.449 227.151 119.449C235.841 119.449 244.272 117.076 252.97 110.752V126.561C245.987 132.227 237.161 135.387 226.623 135.387C201.329 135.387 186.573 122.343 186.573 98.1021V98.1073V98.1099ZM205.542 89.284H236.5C235.708 79.7995 230.967 74.6613 221.482 74.6613C213.051 74.6613 207.387 79.5329 205.54 89.284H205.542Z" fill="black"/>
<path d="M262.447 61.2276H281.416V72.1574C286.554 64.518 294.594 60.1665 304.47 60.1665C322.253 60.1665 330.951 70.7043 330.951 89.6733V134.461H311.982V92.833C311.982 81.242 306.977 75.7092 297.226 75.7092C287.474 75.7092 281.416 81.9006 281.416 94.5449V134.461H262.447V61.2198V61.225V61.2276Z" fill="black"/>
<path d="M43.7832 176.83H60.9071L100.957 272.997H80.8013L71.7114 250.335H31.4003L22.3104 272.997H4L43.7832 176.83ZM65.2586 234.129L51.5558 199.617L37.8531 234.129H65.2586Z" fill="black"/>
<path d="M123.082 182.621L123.348 182.754V199.75H141.264V215.031H123.481V249.018C123.481 256.655 127.041 259.028 131.518 259.028C135.203 259.028 138.368 257.974 141.269 255.868V270.885C137.584 273.125 133.104 274.312 127.833 274.312C113.871 274.312 104.912 269.699 104.912 250.866V215.034H93.3213V204.363L123.095 182.629L123.082 182.624V182.621Z" fill="black"/>
<path d="M148.245 169.182H166.952V211.072C172.09 203.166 180.13 198.689 189.873 198.689C207.789 198.689 216.487 209.227 216.487 228.196V272.984H197.518V231.356C197.518 219.765 192.513 214.232 182.762 214.232C173.01 214.232 167.219 220.423 167.219 233.068V272.984H148.25V169.177L148.245 169.182Z" fill="black"/>
<path d="M223.46 236.638C223.46 213.85 237.688 198.7 259.555 198.7C279.978 198.7 291.827 211.611 291.827 232.686V241.251H242.034C243.746 253.108 251.911 257.98 264.035 257.98C272.725 257.98 281.156 255.607 289.857 249.29V265.099C282.871 270.765 274.047 273.922 263.51 273.922C238.216 273.922 223.46 260.881 223.46 236.646V236.64V236.638ZM242.426 227.812H273.386C272.592 218.327 267.853 213.189 258.369 213.189C249.938 213.189 244.272 218.061 242.426 227.812Z" fill="black"/>
<path d="M299.331 199.753H318.3V210.688C323.438 203.051 331.477 198.697 341.354 198.697C359.136 198.697 367.834 209.235 367.834 228.204V272.992H348.865V231.364C348.865 219.773 343.86 214.24 334.109 214.24C324.358 214.24 318.3 220.431 318.3 233.076V272.992H299.331V199.751V199.753Z" fill="black"/>
<path d="M434.224 274.179C425.793 274.179 419.996 271.414 418.415 262.588C414.463 270.099 406.824 274.051 397.073 274.051C382.975 274.051 374.544 267.201 374.544 255.082C374.544 242.963 382.709 236.113 399.179 231.766C412.749 227.948 416.962 226.628 416.962 222.282C416.962 217.669 413.535 214.645 404.051 214.645C395.094 214.645 385.082 218.33 375.331 226.895V209.24C382.442 203.182 394.038 198.703 405.763 198.703C425.39 198.703 435.403 207.393 435.403 223.602V251.135C435.403 257.46 437.248 259.3 441.594 259.3C443.039 259.3 444.1 259.167 445.02 258.775V271.419C442.255 273.131 439.882 274.184 434.216 274.184L434.221 274.179H434.224ZM417.236 242.96V237.689C415.524 239.928 411.836 241.64 405.245 243.355C396.153 245.728 393.654 248.754 393.654 253.106C393.654 257.457 396.947 259.825 401.691 259.825C410.914 259.825 417.233 252.186 417.233 242.963L417.236 242.96Z" fill="black"/>
<g clip-path="url(#clip0_1170_87)">
<path fill-rule="evenodd" clip-rule="evenodd" d="M615.637 15.0824C603.52 15.0824 593.69 24.9117 593.69 37.0291C593.69 49.1465 603.52 58.9758 615.637 58.9758C627.754 58.9758 637.584 49.1465 637.584 37.0291C637.584 24.9117 627.754 15.0824 615.637 15.0824ZM578.608 37.0291C578.608 16.5792 595.187 0 615.637 0C636.087 0 652.666 16.5792 652.666 37.0291C652.666 57.479 636.087 74.0582 615.637 74.0582C595.187 74.0582 578.608 57.479 578.608 37.0291Z" fill="#696752"/>
<path fill-rule="evenodd" clip-rule="evenodd" d="M634.017 129.745C621.9 129.745 612.071 139.574 612.071 151.692C612.071 163.809 621.9 173.638 634.017 173.638C646.135 173.638 655.964 163.809 655.964 151.692C655.964 139.574 646.135 129.745 634.017 129.745ZM596.988 151.692C596.988 131.242 613.567 114.663 634.017 114.663C654.467 114.663 671.047 131.242 671.047 151.692C671.047 172.142 654.467 188.721 634.017 188.721C613.567 188.721 596.988 172.142 596.988 151.692Z" fill="#696752"/>
<path fill-rule="evenodd" clip-rule="evenodd" d="M427.336 75.5931C415.218 75.5931 405.389 85.4224 405.389 97.5399C405.389 109.657 415.218 119.487 427.336 119.487C439.453 119.487 449.282 109.657 449.282 97.5399C449.282 85.4224 439.453 75.5931 427.336 75.5931ZM390.307 97.5399C390.307 77.0899 406.886 60.5107 427.336 60.5107C447.786 60.5107 464.365 77.0899 464.365 97.5399C464.365 117.99 447.786 134.569 427.336 134.569C406.886 134.569 390.307 117.999 390.307 97.5399Z" fill="#696752"/>
<path d="M503.987 120.841C503.987 98.1979 487.351 79.4355 465.633 76.1177C462.077 69.7778 456.995 64.4103 450.884 60.5205H458.74C492.051 60.5205 519.06 87.5296 519.06 120.841V226.551C519.06 252.33 498.162 273.228 472.383 273.228V258.146C489.83 258.146 503.978 243.998 503.978 226.551V120.841H503.987Z" fill="#9C683C"/>
<path d="M597.923 114.672C579.904 114.672 563.735 122.566 552.685 135.093V60.3199C552.685 43.8932 561.447 29.5068 574.546 21.5842C577.845 12.8227 583.851 5.39592 591.564 0.333496C561.247 3.51777 537.612 29.1541 537.612 60.3199V226.551C537.612 252.33 558.51 273.228 584.29 273.228V258.145C566.843 258.145 552.695 243.997 552.695 226.551V174.992C552.695 150.652 571.905 130.812 595.988 129.792C599.525 123.662 604.501 118.466 610.46 114.672H597.932H597.923Z" fill="#9C683C"/>
</g>
<defs>
<clipPath id="clip0_1170_87">
<rect width="280.741" height="273.228" fill="white" transform="translate(390.306)"/>
</clipPath>
</defs>
</svg>
