<?xml version="1.0" encoding="utf-8"?>
<!-- Generator: Adobe Illustrator 25.2.3, SVG Export Plug-In . SVG Version: 6.00 Build 0)  -->
<svg version="1.1" id="Layer_1" xmlns="http://www.w3.org/2000/svg" xmlns:xlink="http://www.w3.org/1999/xlink" x="0px" y="0px"
	 viewBox="0 0 612 481.61" style="enable-background:new 0 0 612 481.61;" xml:space="preserve">
<style type="text/css">
	.st0{fill:#C2DBF3;stroke:#A7A9AC;stroke-width:3;stroke-miterlimit:10;}
	.st1{fill:#FFFFFF;stroke:#006838;stroke-width:5;stroke-miterlimit:10;}
	.st2{fill:#FFFFFF;stroke:#939598;stroke-width:3;stroke-miterlimit:10;}
	.st3{fill:#009444;stroke:#39B54A;stroke-width:3;stroke-miterlimit:10;}
	.st4{fill:#FFDE17;stroke:#FFE17D;stroke-width:3;stroke-miterlimit:10;}
	.st5{fill:#F15A29;stroke:#F58029;stroke-width:3;stroke-miterlimit:10;}
	.st6{fill:none;stroke:#939598;stroke-width:2;stroke-miterlimit:10;}
	.st7{fill:#FFFFFF;stroke:#939598;stroke-width:2;stroke-miterlimit:10;}
	.st8{fill:#939598;stroke:#939598;stroke-width:2;stroke-miterlimit:10;}
	.st9{fill:#FFFFFF;stroke:#000000;stroke-miterlimit:10;}
</style>
<g>
	<circle class="st0" cx="297.15" cy="240.3" r="170"/>
	<circle class="st1" cx="297.65" cy="239.8" r="130.5"/>
	<circle class="st2" cx="297.65" cy="109.3" r="20"/>
	<circle class="st2" cx="297.15" cy="370.3" r="20"/>
	<circle class="st3" cx="297.15" cy="306.3" r="20"/>
	<circle class="st3" cx="297.65" cy="239.8" r="20"/>
	<circle class="st3" cx="297.15" cy="173.3" r="20"/>
	<circle class="st4" cx="371.15" cy="271.3" r="20"/>
	<circle class="st5" cx="221.15" cy="271.3" r="20"/>
	<circle class="st5" cx="221.15" cy="202.3" r="20"/>
	<circle class="st4" cx="371.15" cy="202.3" r="20"/>
	<polygon class="st6" points="277.43,240.02 241.04,202.37 277.43,173.43 241.04,271.08 	"/>
	<polyline class="st6" points="241.04,202.37 277.43,306.61 241.04,271.08 	"/>
	<polyline class="st7" points="350.57,202.37 317.87,306.61 350.57,271.08 317.87,240.02 350.57,202.37 317.87,173.43 
		350.57,271.08 	"/>
	<circle class="st8" cx="241.15" cy="202.3" r="4.5"/>
	<circle class="st8" cx="241.15" cy="271.3" r="4.5"/>
	<circle class="st8" cx="277.15" cy="306.3" r="4.5"/>
	<circle class="st8" cx="277.15" cy="240.3" r="4.5"/>
	<circle class="st8" cx="277.15" cy="173.3" r="4.5"/>
	<circle class="st8" cx="318.15" cy="173.3" r="4.5"/>
	<circle class="st8" cx="318.15" cy="240.3" r="4.5"/>
	<circle class="st8" cx="318.15" cy="305.3" r="4.5"/>
	<circle class="st8" cx="350.15" cy="202.3" r="4.5"/>
	<circle class="st8" cx="350.15" cy="271.3" r="4.5"/>
</g>
<line class="st9" x1="612" y1="0" x2="612" y2="481.61"/>
</svg>
